<svg xmlns="http://www.w3.org/2000/svg" width="24" height="24" viewBox="0 0 24 24">
  <g fill="none" fill-rule="evenodd" stroke="#000" stroke-linecap="round" stroke-linejoin="round" stroke-width="2" transform="translate(1 1)">
    <path d="M0 0L22 22M20 20L2 20C.8954305 20 2.22044605e-16 19.1045695 0 18L0 7C-1.11022302e-16 5.8954305.8954305 5 2 5L5 5M8 2L14 2 16 5 20 5C21.1045695 5 22 5.8954305 22 7L22 16.34M14.28 14.28C13.3724273 15.6063561 11.7591585 16.2607308 10.1840602 15.9413966 8.60896205 15.6220624 7.37793756 14.391038 7.05860339 12.8159398 6.73926922 11.2408415 7.39364393 9.62757272 8.72 8.72"/>
  </g>
</svg>
