<svg xmlns="http://www.w3.org/2000/svg" width="24" height="24" viewBox="0 0 24 24">
  <g fill="none" fill-rule="evenodd" stroke="#000" stroke-linecap="round" stroke-linejoin="round" stroke-width="2" transform="translate(0 1)">
    <path d="M8 18L8 20M8 12L8 14M16 18L16 20M16 12L16 14M12 20L12 22M12 14L12 16M20 15.58C22.1666971 14.6310615 23.3719893 12.2936524 22.8885932 9.97818513 22.4051971 7.66271783 20.3653864 6.00278331 18 6L16.74 6C15.8695943 2.62945307 12.9194928.208656038 9.44387933.0129425627 5.96826587-.182770913 2.76504323 1.89152946 1.52174557 5.14305273.2784479 8.394576 1.28050125 12.0768642 4 14.25"/>
  </g>
</svg>
