<svg xmlns="http://www.w3.org/2000/svg" width="20" height="20" viewBox="0 0 20 20">
  <path fill="none" stroke="#000" stroke-linecap="round" stroke-linejoin="round" stroke-width="2" d="M15,0 C13.3431458,0 12,1.34314575 12,3 L12,15 C12,16.6568542 13.3431458,18 15,18 C16.6568542,18 18,16.6568542 18,15 C18,13.3431458 16.6568542,12 15,12 L3,12 C1.34314575,12 0,13.3431458 0,15 C0,16.6568542 1.34314575,18 3,18 C4.65685425,18 6,16.6568542 6,15 L6,3 C6,1.34314575 4.65685425,0 3,0 C1.34314575,0 0,1.34314575 0,3 C-8.8817842e-16,4.65685425 1.34314575,6 3,6 L15,6 C16.6568542,6 18,4.65685425 18,3 C18,1.34314575 16.6568542,0 15,0 Z" transform="translate(1 1)"/>
</svg>
