<svg xmlns="http://www.w3.org/2000/svg" width="24" height="24" viewBox="0 0 24 24">
  <path fill="none" stroke="#000" stroke-linecap="round" stroke-linejoin="round" stroke-width="2" d="M21.65,13.39 L11,21.13 L0.35,13.39 C0.0571162301,13.1746042 -0.0639577925,12.7952389 0.05,12.45 L1.27,8.67 L3.71,1.16 C3.73366621,1.09880696 3.77133949,1.04400945 3.82,1 C3.98423341,0.849986876 4.23576659,0.849986876 4.4,1 C4.45138282,1.04966484 4.48924367,1.11161897 4.51,1.18 L6.95,8.67 L15.05,8.67 L17.49,1.16 C17.5136662,1.09880696 17.5513395,1.04400945 17.6,1 C17.7642334,0.849986876 18.0157666,0.849986876 18.18,1 C18.2313828,1.04966484 18.2692437,1.11161897 18.29,1.18 L20.73,8.69 L22,12.45 C22.1037458,12.806245 21.9614702,13.1883567 21.65,13.39 Z" transform="translate(1 1)"/>
</svg>
