<svg xmlns="http://www.w3.org/2000/svg" width="20" height="20" viewBox="0 0 20 20">
  <g fill="none" fill-rule="evenodd" stroke="#000" stroke-linecap="round" stroke-linejoin="round" stroke-width="2" transform="translate(1 1)">
    <path d="M0,15 L0,9 C7.40671569e-08,4.0294373 4.0294373,1.34110449e-07 9,1.3411045e-07 C13.9705627,1.34110451e-07 17.9999999,4.0294373 18,9 L18,15"/>
    <path d="M18,16 C18,17.1045695 17.1045695,18 16,18 L15,18 C13.8954305,18 13,17.1045695 13,16 L13,13 C13,11.8954305 13.8954305,11 15,11 L18,11 L18,16 Z M0,16 C0,17.1045695 0.8954305,18 2,18 L3,18 C4.1045695,18 5,17.1045695 5,16 L5,13 C5,11.8954305 4.1045695,11 3,11 L0,11 L0,16 Z"/>
  </g>
</svg>
