<svg xmlns="http://www.w3.org/2000/svg" width="24" height="12" viewBox="0 0 24 12">
  <g fill="none" fill-rule="evenodd" stroke="#000" stroke-linecap="round" stroke-linejoin="round" stroke-width="2" transform="translate(1 1)">
    <path d="M14 0L17 0C18.3260824 1.77635684e-15 19.597852.526784202 20.5355339 1.46446609 21.4732158 2.40214799 22 3.67391755 22 5 22 7.76142375 19.7614237 10 17 10L14 10M8 10L5 10C3.67391755 10 2.40214799 9.4732158 1.46446609 8.53553391.526784202 7.59785201 1.11022302e-16 6.32608245 0 5-2.22044605e-16 2.23857625 2.23857625 1.77635684e-15 5 1.77635684e-15L8 1.77635684e-15M7 5L15 5"/>
  </g>
</svg>
