<svg xmlns="http://www.w3.org/2000/svg" width="24" height="24" viewBox="0 0 24 24">
  <g fill="none" fill-rule="evenodd" stroke="#000" stroke-linecap="round" stroke-linejoin="round" stroke-width="2" transform="translate(1)">
    <path d="M0 1L22 23M8 9L8 12C8.00106654 13.2125666 8.73198021 14.305263 9.85230595 14.7691479 10.9726317 15.2330328 12.2620527 14.9768812 13.12 14.12M14 9.34L14 4C14.001549 2.45874069 12.8349546 1.16706808 11.3014976 1.01217343 9.76804065.85727879 8.36670305 1.88956434 8.06 3.4"/>
    <path d="M16 16.95C14.0029591 18.9883773 10.9684939 19.610456 8.33049621 18.5222819 5.69249854 17.4341079 3.97912302 14.8535449 4 12L4 10M18 10L18 12C17.9996407 12.41244 17.9628309 12.8240412 17.89 13.23M11 19L11 23M7 23L15 23"/>
  </g>
</svg>
