<svg xmlns="http://www.w3.org/2000/svg" width="16" height="24" viewBox="0 0 16 24">
  <g fill="none" fill-rule="evenodd" stroke="#000" stroke-linecap="round" stroke-linejoin="round" stroke-width="2" transform="translate(1 1)">
    <path d="M7,2.22044605e-16 C5.34314575,-2.22044605e-16 4,1.34314575 4,3 L4,11 C4,12.6568542 5.34314575,14 7,14 C8.65685425,14 10,12.6568542 10,11 L10,3 C10,1.34314575 8.65685425,2.22044605e-16 7,2.22044605e-16 Z"/>
    <path d="M14 9L14 11C13.9999999 14.8659932 10.8659932 17.9999999 7 17.9999999 3.13400679 17.9999999 5.7607787e-8 14.8659932-1.77635684e-15 11L-1.77635684e-15 9M7 18L7 22M3 22L11 22"/>
  </g>
</svg>
