<svg xmlns="http://www.w3.org/2000/svg" width="20" height="20" viewBox="0 0 20 20">
  <g fill="none" fill-rule="evenodd" stroke="#000" stroke-linecap="round" stroke-linejoin="round" stroke-width="2" transform="translate(1 1)">
    <path d="M6,14 L2,14 C0.8954305,14 0,14.8954305 0,16 C0,17.1045695 0.8954305,18 2,18 L4,18 C5.1045695,18 6,17.1045695 6,16 L6,14 Z M18,12 L14,12 C12.8954305,12 12,12.8954305 12,14 C12,15.1045695 12.8954305,16 14,16 L16,16 C17.1045695,16 18,15.1045695 18,14 L18,12 Z"/>
    <polyline points="6 14 6 2 18 0 18 12"/>
  </g>
</svg>
