<svg xmlns="http://www.w3.org/2000/svg" width="24" height="24" viewBox="0 0 24 24">
  <g fill="none" fill-rule="evenodd" stroke="#000" stroke-linecap="round" stroke-linejoin="round" stroke-width="2" transform="translate(1 1)">
    <path d="M9.68 12.31C10.6948544 13.3257488 11.8418194 14.2002675 13.09 14.91L14.36 13.64C14.9151937 13.0909849 15.739125 12.915265 16.47 13.19 17.3772731 13.5285505 18.3199335 13.763377 19.28 13.89 20.2740325 14.0304992 21.0098802 14.8861359 21 15.89L21 18.89C21.0022858 19.4531451 20.767048 19.9911584 20.3520779 20.3718649 19.9371078 20.7525714 19.3808639 20.9406881 18.82 20.89 15.7428339 20.5556408 12.7869992 19.5041445 10.19 17.82 8.98527003 17.0550547 7.86852685 16.159648 6.86 15.15M4.19 11.81C2.50585546 9.21300083 1.45435922 6.25716613 1.12 3.18 1.06947321 2.62087233 1.25627201 2.06625242 1.63476578 1.65162106 2.01325955 1.23698969 2.54859424 1.00052869 3.11 1L6.11 1C7.11386406.990119843 7.96950085 1.72596748 8.11 2.72 8.23662301 3.68006645 8.47144946 4.62272688 8.81 5.53 9.084735 6.26087503 8.90901507 7.08480626 8.36 7.64L7.09 8.91M22 0L0 22"/>
  </g>
</svg>
