<svg xmlns="http://www.w3.org/2000/svg" width="23" height="23" viewBox="0 0 23 23">
  <g fill="none" fill-rule="evenodd" stroke="#000" stroke-linecap="round" stroke-linejoin="round" stroke-width="2" transform="translate(1 1)">
    <polyline points="17 0 21 4 17 8"/>
    <path d="M13 4L21 4M20 15.92L20 18.92C20.0022858 19.4831451 19.767048 20.0211584 19.3520779 20.4018649 18.9371078 20.7825714 18.3808639 20.9706881 17.82 20.92 14.7428339 20.5856408 11.7869992 19.5341445 9.19 17.85 6.77382812 16.3146639 4.72533615 14.2661719 3.19 11.85 1.49997806 9.24120398.448243002 6.27099456.12 3.18.0694732103 2.62087233.256272008 2.06625242.63476578 1.65162106 1.01325955 1.23698969 1.54859424 1.00052869 2.11 1L5.11 1C6.11386406.990119843 6.96950085 1.72596748 7.11 2.72 7.23662301 3.68006645 7.47144946 4.62272688 7.81 5.53 8.084735 6.26087503 7.90901507 7.08480626 7.36 7.64L6.09 8.91C7.51355547 11.4135458 9.58645417 13.4864445 12.09 14.91L13.36 13.64C13.9151937 13.0909849 14.739125 12.915265 15.47 13.19 16.3772731 13.5285505 17.3199335 13.763377 18.28 13.89 19.2855627 14.0318603 20.02519 14.9047926 20 15.92z"/>
  </g>
</svg>
